<svg width="33" height="37" viewBox="0 0 33 37" fill="none" xmlns="http://www.w3.org/2000/svg">
<path d="M28.9008 22.2703C26.9152 23.9212 27.3793 23.1072 26.725 26.0742C26.4851 26.9076 25.9424 27.6212 25.2034 28.0751C25.8121 28.5924 26.4739 28.988 26.4739 29.7868C26.4813 29.9853 26.4452 30.1829 26.3681 30.3659C26.291 30.5489 26.1748 30.7129 26.0276 30.8463C25.8805 30.9796 25.706 31.0792 25.5163 31.138C25.3266 31.1968 25.1263 31.2134 24.9296 31.1866C24.4655 31.1866 23.408 30.2204 25.2339 31.7268C25.4545 31.8968 25.619 32.129 25.7063 32.3935C25.7935 32.658 25.7994 32.9426 25.7232 33.2104C25.647 33.4783 25.4923 33.7172 25.2789 33.8962C25.0655 34.0752 24.8034 34.1861 24.5263 34.2145C23.6667 34.3058 23.2863 33.6211 22.4418 33.0125C21.3919 32.1376 22.7766 33.081 22.3201 34.1004C22.2297 34.3505 22.0688 34.5691 21.8568 34.7298C21.6449 34.8905 21.3909 34.9863 21.1257 35.0057C20.3649 35.059 19.9921 34.6025 19.1629 33.895C19.3451 34.0854 19.4696 34.3236 19.5218 34.582C19.5741 34.8403 19.5519 35.1082 19.4578 35.3544C19.3638 35.6007 19.2018 35.8152 18.9907 35.9729C18.7795 36.1307 18.5279 36.2254 18.2652 36.2458C17.5044 36.3295 17.1696 35.873 15.534 34.496C8.96848 29.0032 9.59992 29.4597 9.52385 29.4597C6.13839 26.6524 6.67094 27.3295 5.91016 23.8375C5.83408 23.5408 5.79604 23.5484 4.25928 22.2703L10.9617 14.2898C12.4224 15.5299 12.4833 15.6288 12.7876 15.644C13.6016 15.6896 15.8991 15.644 16.4165 16.1917C16.7132 16.3515 16.4925 16.3515 16.7893 16.1917H16.8958L17.124 16.0852C17.512 15.6972 20.3421 15.9407 20.7605 15.5831C20.8366 15.5831 20.4942 15.8037 22.1832 14.3887L28.9008 22.2703Z" fill="#F6CCAF"/>
<path d="M28.8994 22.2703C26.9138 23.9212 27.3778 23.1072 26.7236 26.0742C26.4837 26.9076 25.941 27.6212 25.202 28.0751C25.8106 28.5924 26.4725 28.988 26.4725 29.7868C26.4799 29.9853 26.4437 30.1829 26.3666 30.3659C26.2895 30.549 26.1733 30.7129 26.0262 30.8463C25.8791 30.9796 25.7045 31.0792 25.5148 31.138C25.3252 31.1968 25.1249 31.2134 24.9281 31.1866C24.4641 31.1866 23.4066 30.2204 25.2324 31.7268C25.3713 31.8467 25.4852 31.9927 25.5676 32.1566C25.65 32.3205 25.6994 32.4991 25.7128 32.6821C25.7262 32.865 25.7035 33.0488 25.6459 33.223C25.5882 33.3972 25.4969 33.5583 25.377 33.6972C25.2571 33.8361 25.111 33.95 24.9471 34.0324C24.7832 34.1148 24.6047 34.1641 24.4217 34.1776C24.2388 34.191 24.0549 34.1682 23.8808 34.1106C23.7066 34.053 23.5455 33.9616 23.4066 33.8417C22.3339 32.9516 22.486 33.081 22.4024 33.0125C21.3525 32.1376 22.7371 33.081 22.2806 34.1004C22.193 34.3451 22.0378 34.5599 21.8332 34.7201C21.6286 34.8803 21.3828 34.9793 21.1243 35.0057C20.3635 35.059 19.9907 34.6025 19.1615 33.895C19.2858 34.0309 19.3822 34.1899 19.4452 34.363C19.5081 34.5362 19.5363 34.72 19.5282 34.904C19.52 35.0881 19.4757 35.2687 19.3978 35.4356C19.3199 35.6025 19.2098 35.7524 19.074 35.8768C18.9381 36.0012 18.779 36.0976 18.6059 36.1605C18.4328 36.2234 18.249 36.2516 18.0649 36.2435C17.8809 36.2354 17.7003 36.1911 17.5334 36.1132C17.3665 36.0352 17.2165 35.9252 17.0921 35.7893C17.4538 35.4117 17.7009 34.9392 17.8046 34.4266C17.9083 33.9141 17.8643 33.3827 17.6778 32.8942C17.4913 32.4057 17.17 31.9802 16.7512 31.6671C16.3323 31.354 15.8333 31.1663 15.3119 31.1258C15.1196 30.6576 14.8006 30.2523 14.3907 29.9553C13.9809 29.6583 13.4964 29.4814 12.9916 29.4445C12.8449 29.0917 12.6254 28.7738 12.3475 28.5116C12.0696 28.2494 11.7395 28.0488 11.3787 27.9229C11.2657 27.2815 10.9296 26.7007 10.4299 26.2831C9.93009 25.8654 9.29881 25.6379 8.64753 25.6406C7.79547 25.6406 7.9248 25.9753 7.78786 25.3819C7.14881 22.6888 7.339 23.0615 6.73799 22.5518C6.66594 22.4906 6.60688 22.4156 6.56431 22.3312C6.52174 22.2468 6.49652 22.1547 6.49014 22.0604C6.48376 21.966 6.49634 21.8714 6.52715 21.782C6.55796 21.6926 6.60637 21.6103 6.66952 21.54L11.9949 15.1875C12.6873 15.7657 12.2536 15.6136 15.0761 15.7657C15.5424 15.8012 15.9936 15.9472 16.3922 16.1917C16.6889 16.3515 16.4683 16.3515 16.765 16.1917H16.803C17.4649 15.7505 18.4311 15.7885 20.3635 15.6896C20.6982 15.6896 20.6602 15.6212 22.1893 14.3354L28.8994 22.2703Z" fill="#FFDEC7"/>
<path d="M27.5079 21.5781C25.5527 23.2214 26.0472 22.3389 25.3321 25.382C25.1862 25.9835 24.8434 26.5191 24.3583 26.9035L24.0388 27.1774L16.8342 20.9238L13.4031 23.0084L11.3643 21.4868L12.6119 19.2577L16.4158 16.1385C16.6973 16.2907 16.4995 16.2907 16.7886 16.1385C16.9081 16.0662 17.0327 16.0026 17.1614 15.9483C17.6787 15.5984 20.2045 15.7201 20.6001 15.568C20.7675 15.4995 20.699 15.5299 21.7336 14.655L27.5079 21.5781Z" fill="#FFDEC7"/>
<path d="M28.9002 22.2702C26.9373 23.921 27.4242 23.0309 26.7243 26.074C26.4818 26.9061 25.9398 27.6188 25.2028 28.0749L25.7353 28.5237C25.6323 28.6467 25.4898 28.7301 25.3321 28.7596L16.8342 20.9616L13.4031 23.0462L11.3643 21.5246L12.6119 19.2955C16.7658 15.8568 16.3169 16.1155 16.5604 16.2981C17.002 15.9686 17.5316 15.7779 18.0819 15.7503C21.2239 15.5829 20.2197 15.9557 22.2205 14.2744L28.9002 22.2702Z" fill="#F6CCAF"/>
<path d="M26.382 22.5519C26.032 22.8486 25.9255 22.9094 25.8646 23.1757C25.1876 26.0362 25.3245 26.1579 24.0388 27.2458L16.8342 20.9923L13.4031 23.0768L11.3643 21.5552L12.6119 19.3262C16.7658 15.8875 16.3169 16.1461 16.5604 16.3287C16.6188 16.2788 16.6826 16.2354 16.7506 16.1994L16.8875 16.1233L17.1157 16.0168C17.4733 15.7733 18.7438 15.7657 20.3338 15.6821C20.6077 15.6821 20.7827 15.4919 21.0946 15.2256L26.42 21.5857C26.541 21.7198 26.6047 21.896 26.5976 22.0765C26.5905 22.257 26.5131 22.4276 26.382 22.5519Z" fill="#FFDEC7"/>
<path d="M25.7352 28.5391C25.6696 28.6161 25.5879 28.6779 25.4959 28.7199C25.4039 28.762 25.3038 28.7834 25.2026 28.7826C24.8451 28.7826 25.0429 28.8586 21.026 25.4808C20.92 25.3577 20.8607 25.2013 20.8585 25.0389C20.8562 24.8765 20.9111 24.7185 21.0135 24.5925C21.116 24.4665 21.2594 24.3805 21.4189 24.3496C21.5783 24.3187 21.7435 24.3448 21.8856 24.4233L25.6134 27.5653C25.7276 27.6718 25.8036 27.5653 25.1722 28.0903L25.7352 28.5391Z" fill="#EDB996"/>
<path d="M21.7343 25.8762C21.3767 25.8762 21.7343 26.0663 16.1046 21.3724C15.9835 21.2479 15.9131 21.0828 15.9069 20.9093C15.9008 20.7358 15.9593 20.5662 16.0712 20.4334C16.1831 20.3006 16.3404 20.2142 16.5124 20.1909C16.6845 20.1676 16.8591 20.2091 17.0023 20.3073L22.1832 24.6513C22.2931 24.7426 22.3721 24.8657 22.4093 25.0037C22.4465 25.1418 22.44 25.2879 22.3909 25.4221C22.3417 25.5563 22.2522 25.672 22.1346 25.7533C22.0171 25.8346 21.8772 25.8775 21.7343 25.8762Z" fill="#EDB996"/>
<path d="M11.3637 13.7649C10.9757 14.2213 4.75255 21.6313 3.75593 22.8029L0.583496 20.125L8.19125 11.0793L11.3637 13.7649Z" fill="#DB5669"/>
<path d="M11.364 13.7647L4.98105 21.3725L4.26592 20.779C4.05501 20.6031 3.88094 20.3873 3.75372 20.1439C3.6265 19.9004 3.54864 19.6343 3.5246 19.3607C3.50056 19.0871 3.53083 18.8115 3.61366 18.5496C3.69649 18.2878 3.83025 18.0448 4.00725 17.8348L9.0588 11.8247L11.364 13.7647Z" fill="#F26674"/>
<path d="M18.2097 20.353C14.5884 23.3961 14.3526 23.8298 13.2038 23.8298C12.7002 23.8329 12.208 23.6802 11.7946 23.3928C11.3811 23.1053 11.0666 22.697 10.8942 22.2239C10.7218 21.7508 10.6998 21.2359 10.8314 20.7498C10.9629 20.2637 11.2415 19.8302 11.629 19.5085L15.9046 15.9253C16.139 16.0151 16.3593 16.1381 16.5588 16.2905C16.7366 16.1568 16.9309 16.0468 17.137 15.9633C17.2253 16.098 17.2602 16.2607 17.2349 16.4197C17.2095 16.5786 17.1258 16.7225 17.0001 16.823C16.8631 16.9295 16.4219 17.3023 12.5267 20.5736C12.3252 20.7549 12.2021 21.0075 12.1837 21.278C12.1653 21.5484 12.253 21.8154 12.4282 22.0223C12.6034 22.2291 12.8523 22.3596 13.1221 22.386C13.3919 22.4124 13.6613 22.3326 13.8733 22.1637L17.3196 19.2803C17.4636 19.1817 17.6392 19.1404 17.812 19.1646C17.9848 19.1887 18.1424 19.2765 18.2538 19.4108C18.3652 19.5451 18.4225 19.7161 18.4143 19.8904C18.4062 20.0647 18.3332 20.2297 18.2097 20.353Z" fill="#EDB996"/>
<path d="M32.5371 20.1247L29.3419 22.8027C28.5811 21.8897 22.2895 14.3885 21.7341 13.7646L24.9294 11.0791L32.5371 20.1247Z" fill="#6FABE6"/>
<path d="M11.3169 31.5745L10.2518 32.4418C8.9585 33.5373 6.86637 31.681 8.68462 30.1594L9.52908 29.4443C9.81156 29.2072 10.1766 29.0921 10.544 29.1242C10.9114 29.1563 11.251 29.333 11.4881 29.6155C11.7252 29.898 11.8403 30.2631 11.8082 30.6304C11.7761 30.9978 11.5994 31.3374 11.3169 31.5745Z" fill="#F6CCAF"/>
<path d="M11.8053 30.3648L10.9457 31.0875C10.7531 31.2534 10.5186 31.3631 10.2678 31.4045C10.0171 31.446 9.75976 31.4176 9.52405 31.3226C9.28834 31.2275 9.08334 31.0694 8.93152 30.8656C8.77971 30.6617 8.68692 30.42 8.66333 30.167L9.50779 29.4519C9.70053 29.2847 9.9355 29.1737 10.1871 29.131C10.4386 29.0883 10.697 29.1155 10.9341 29.2097C11.1713 29.3039 11.3779 29.4615 11.5316 29.6652C11.6852 29.8689 11.7799 30.1109 11.8053 30.3648Z" fill="#FFDEC7"/>
<path d="M9.53068 29.452L8.46559 30.3497C7.15706 31.4605 5.08775 29.5889 6.89079 28.0674L7.74286 27.3523C8.02513 27.1532 8.37164 27.0668 8.71435 27.11C9.05706 27.1533 9.37122 27.3231 9.59516 27.5861C9.8191 27.8491 9.93665 28.1863 9.92471 28.5316C9.91278 28.8768 9.77224 29.2051 9.53068 29.452Z" fill="#F6CCAF"/>
<path d="M10.0172 28.2349L9.16514 28.9956C8.97218 29.1586 8.73853 29.266 8.48921 29.3063C8.23989 29.3467 7.98429 29.3184 7.74979 29.2246C7.51529 29.1308 7.31073 28.975 7.158 28.7739C7.00528 28.5727 6.91015 28.3338 6.88281 28.0827L7.73488 27.3676C7.9248 27.2056 8.15476 27.0977 8.4007 27.0551C8.64664 27.0125 8.89951 27.0368 9.13284 27.1255C9.36616 27.2141 9.57136 27.3639 9.72694 27.5591C9.88253 27.7542 9.98278 27.9877 10.0172 28.2349Z" fill="#FFDEC7"/>
<path d="M13.6383 33.2635L12.5732 34.1536C11.2419 35.2644 9.19538 33.3928 10.9984 31.8713L11.8505 31.1486C12.135 30.9549 12.4812 30.8735 12.8222 30.92C13.1632 30.9666 13.4749 31.1378 13.6971 31.4007C13.9193 31.6635 14.0363 31.9994 14.0254 32.3434C14.0146 32.6874 13.8766 33.0152 13.6383 33.2635Z" fill="#F6CCAF"/>
<path d="M14.1256 32.054L13.266 32.7691C13.0739 32.9348 12.84 33.0445 12.5899 33.0863C12.3397 33.1281 12.0829 33.1004 11.8474 33.0062C11.6119 32.912 11.4068 32.755 11.2545 32.5522C11.1022 32.3494 11.0085 32.1086 10.9836 31.8562L11.8357 31.1334C12.0291 30.9682 12.264 30.8591 12.515 30.8179C12.766 30.7767 13.0235 30.8052 13.2595 30.9C13.4955 30.9949 13.7011 31.1526 13.8537 31.3561C14.0064 31.5595 14.1005 31.8009 14.1256 32.054Z" fill="#FFDEC7"/>
<path d="M15.9596 34.9447L14.8945 35.8348C13.5632 36.9455 11.5167 35.036 13.3197 33.5524L14.1718 32.8297C14.4563 32.636 14.8025 32.5546 15.1435 32.6012C15.4845 32.6477 15.7962 32.819 16.0184 33.0818C16.2406 33.3447 16.3576 33.6805 16.3467 34.0245C16.3358 34.3686 16.1979 34.6964 15.9596 34.9447Z" fill="#F6CCAF"/>
<path d="M16.4376 33.7354L15.5856 34.4505C15.3935 34.6161 15.1596 34.7259 14.9095 34.7677C14.6593 34.8095 14.4024 34.7818 14.167 34.6876C13.9315 34.5934 13.7264 34.4363 13.574 34.2335C13.4217 34.0307 13.328 33.79 13.3032 33.5376L14.1553 32.8148C14.3479 32.6489 14.5824 32.5393 14.8331 32.4978C15.0839 32.4563 15.3412 32.4847 15.5769 32.5798C15.8126 32.6748 16.0176 32.8329 16.1694 33.0368C16.3212 33.2406 16.414 33.4823 16.4376 33.7354Z" fill="#FFDEC7"/>
<path d="M21.7551 13.7649L28.138 21.3727L28.8532 20.7792C29.2769 20.4241 29.5422 19.9152 29.5907 19.3645C29.6392 18.8138 29.4669 18.2664 29.1118 17.8426L24.0603 11.8325L21.7551 13.7649Z" fill="#82BCF4"/>
<path d="M24.9285 31.1863C24.6707 31.1578 24.4284 31.0487 24.2362 30.8744L24.8144 31.3689C24.6845 31.5211 24.4999 31.6161 24.3006 31.6332C24.1012 31.6503 23.9032 31.5881 23.7493 31.4602L20.2269 28.5084C20.0715 28.3793 19.9738 28.1937 19.9553 27.9926C19.9368 27.7914 19.9989 27.5911 20.128 27.4357C20.2571 27.2804 20.4427 27.1827 20.6439 27.1641C20.845 27.1456 21.0453 27.2077 21.2007 27.3368L24.7231 30.2962C24.8491 30.4024 24.9372 30.5465 24.9743 30.707C25.0113 30.8675 24.9953 31.0357 24.9285 31.1863ZM22.4712 33.0502H22.4179C21.5659 32.3351 22.3038 32.9133 22.3038 33.2404C21.6724 33.6513 21.3985 33.1872 19.0401 31.2092C18.9637 31.1447 18.9007 31.0659 18.8547 30.9771C18.8088 30.8883 18.7808 30.7913 18.7723 30.6917C18.7638 30.5921 18.775 30.4918 18.8053 30.3965C18.8356 30.3013 18.8844 30.2129 18.9488 30.1365C19.0132 30.06 19.0921 29.9971 19.1809 29.9511C19.2697 29.9052 19.3666 29.8771 19.4662 29.8687C19.5659 29.8602 19.6662 29.8714 19.7614 29.9017C19.8567 29.932 19.9451 29.9807 20.0215 30.0452L22.3723 32.0232C22.5148 32.1506 22.6041 32.3271 22.6225 32.5174C22.6408 32.7077 22.5868 32.8979 22.4712 33.0502ZM19.6031 34.2827C18.7967 33.7045 19.2379 33.7882 19.4509 34.4196C19.3136 34.5138 19.1492 34.5603 18.983 34.5521C18.8167 34.5438 18.6577 34.4813 18.5304 34.374L17.8229 33.7806C17.7484 33.7137 17.6879 33.6327 17.6448 33.5424C17.6016 33.4521 17.5767 33.3541 17.5714 33.2542C17.5661 33.1542 17.5805 33.0542 17.6139 32.9598C17.6472 32.8654 17.6989 32.7785 17.7658 32.7041C17.8327 32.6297 17.9137 32.5691 18.004 32.526C18.0943 32.4828 18.1923 32.4579 18.2922 32.4526C18.3922 32.4473 18.4922 32.4618 18.5866 32.4951C18.681 32.5285 18.7679 32.5801 18.8423 32.647L19.5194 33.21C19.5953 33.2749 19.6577 33.3542 19.703 33.4433C19.7483 33.5323 19.7756 33.6294 19.7834 33.729C19.7912 33.8286 19.7793 33.9288 19.7483 34.0238C19.7174 34.1188 19.668 34.2068 19.6031 34.2827Z" fill="#EDB996"/>
<path d="M17.3207 9.61857H15.7992C15.5974 9.61857 15.4039 9.53842 15.2612 9.39574C15.1185 9.25307 15.0384 9.05956 15.0384 8.85779C15.0384 8.65602 14.9582 8.46252 14.8156 8.31984C14.6729 8.17717 14.4794 8.09702 14.2776 8.09702C14.0759 8.09702 13.8823 8.17717 13.7397 8.31984C13.597 8.46252 13.5168 8.65602 13.5168 8.85779C13.5168 9.4631 13.7573 10.0436 14.1853 10.4716C14.6133 10.8997 15.1939 11.1401 15.7992 11.1401V11.9009C15.7992 12.1027 15.8793 12.2962 16.022 12.4388C16.1647 12.5815 16.3582 12.6617 16.5599 12.6617C16.7617 12.6617 16.9552 12.5815 17.0979 12.4388C17.2406 12.2962 17.3207 12.1027 17.3207 11.9009V11.1401C17.926 11.1401 18.5066 10.8997 18.9346 10.4716C19.3626 10.0436 19.6031 9.4631 19.6031 8.85779V8.09702C19.6031 7.49171 19.3626 6.91119 18.9346 6.48317C18.5066 6.05515 17.926 5.81469 17.3207 5.81469H15.7992C15.5974 5.81469 15.4039 5.73454 15.2612 5.59186C15.1185 5.44919 15.0384 5.25568 15.0384 5.05391V4.29314C15.0384 4.09137 15.1185 3.89786 15.2612 3.75519C15.4039 3.61251 15.5974 3.53236 15.7992 3.53236H17.3207C17.5225 3.53236 17.716 3.61251 17.8587 3.75519C18.0013 3.89786 18.0815 4.09137 18.0815 4.29314C18.0815 4.49491 18.1617 4.68841 18.3043 4.83109C18.447 4.97376 18.6405 5.05391 18.8423 5.05391C19.044 5.05391 19.2376 4.97376 19.3802 4.83109C19.5229 4.68841 19.6031 4.49491 19.6031 4.29314C19.6031 3.68783 19.3626 3.10731 18.9346 2.67929C18.5066 2.25127 17.926 2.01081 17.3207 2.01081V1.25003C17.3207 1.04826 17.2406 0.854757 17.0979 0.712084C16.9552 0.569411 16.7617 0.489258 16.5599 0.489258C16.3582 0.489258 16.1647 0.569411 16.022 0.712084C15.8793 0.854757 15.7992 1.04826 15.7992 1.25003V2.01081C15.1939 2.01081 14.6133 2.25127 14.1853 2.67929C13.7573 3.10731 13.5168 3.68783 13.5168 4.29314V5.05391C13.5168 5.65922 13.7573 6.23974 14.1853 6.66776C14.6133 7.09578 15.1939 7.33624 15.7992 7.33624H17.3207C17.5225 7.33624 17.716 7.41639 17.8587 7.55907C18.0013 7.70174 18.0815 7.89525 18.0815 8.09702V8.85779C18.0815 9.05956 18.0013 9.25307 17.8587 9.39574C17.716 9.53842 17.5225 9.61857 17.3207 9.61857Z" fill="#FFDE76"/>
</svg>
