<svg width="32" height="35" viewBox="0 0 32 35" fill="none" xmlns="http://www.w3.org/2000/svg">
<path d="M16 34.3242C7.66886 34.3242 0.878418 27.5337 0.878418 19.2026C0.878418 18.7461 1.27786 18.3467 1.73436 18.3467C2.19086 18.3467 2.59029 18.7461 2.59029 19.2026C2.59029 26.6207 8.58186 32.6123 16 32.6123C23.4181 32.6123 29.4097 26.6207 29.4097 19.2026C29.4097 11.7845 23.4181 5.79293 16 5.79293C15.5435 5.79293 15.144 5.39349 15.144 4.93699C15.144 4.48049 15.5435 4.08105 16 4.08105C24.3311 4.08105 31.1215 10.8715 31.1215 19.2026C31.1215 27.5337 24.3311 34.3242 16 34.3242Z" fill="#81D4FA" stroke="#0277BD" stroke-miterlimit="10" stroke-linecap="round" stroke-linejoin="round"/>
<path d="M17.7118 9.21663C17.4835 9.21663 17.2553 9.15957 17.0841 8.98839L13.6603 5.56463C13.318 5.22226 13.318 4.7087 13.6603 4.36632L17.0841 0.942572C17.4265 0.600197 17.94 0.600197 18.2824 0.942572C18.6248 1.28495 18.6248 1.79851 18.2824 2.14088L15.4863 4.93695L18.2824 7.73301C18.6248 8.07538 18.6248 8.58895 18.2824 8.93132C18.1683 9.15957 17.94 9.21663 17.7118 9.21663Z" fill="#81D4FA" stroke="#0277BD" stroke-miterlimit="10" stroke-linecap="round" stroke-linejoin="round"/>
<path d="M23.9888 26.906H8.0113C7.66892 26.906 7.44067 26.6778 7.44067 26.3354V16.6348H24.5594V26.3354C24.5594 26.6778 24.3312 26.906 23.9888 26.906Z" fill="#FFA726" stroke="#0277BD" stroke-miterlimit="10" stroke-linecap="round" stroke-linejoin="round"/>
<path d="M8.58179 25.7646H23.418" stroke="#F57C00" stroke-miterlimit="10" stroke-linecap="round" stroke-linejoin="round"/>
<path d="M8.58179 17.7761H23.418" stroke="#FFCC80" stroke-miterlimit="10" stroke-linecap="round" stroke-linejoin="round"/>
<path d="M9.15259 22.3411H12.5763V24.6236H9.15259V22.3411Z" fill="#EEEEEE" stroke="#0277BD" stroke-miterlimit="10" stroke-linecap="round" stroke-linejoin="round"/>
<path d="M6.86987 12.0696V16.064C6.86987 16.4064 7.09812 16.6346 7.4405 16.6346H24.5592C24.9016 16.6346 25.1299 16.4064 25.1299 16.064V12.0696C25.1299 11.7273 24.9016 11.499 24.5592 11.499H7.4405C7.09812 11.499 6.86987 11.7273 6.86987 12.0696Z" fill="#EC407A" stroke="#0277BD" stroke-miterlimit="10" stroke-linecap="round" stroke-linejoin="round"/>
<path d="M8.01123 12.6404H23.9887" stroke="#F48FB1" stroke-miterlimit="10" stroke-linecap="round" stroke-linejoin="round"/>
<path d="M8.01123 15.4934H23.9887" stroke="#D81B60" stroke-miterlimit="10" stroke-linecap="round" stroke-linejoin="round"/>
</svg>
