<svg width="36" height="25" viewBox="0 0 36 25" fill="none" xmlns="http://www.w3.org/2000/svg">
<path d="M23.0071 0.575439V21.8772H11.5955C11.5955 21.0701 11.2749 20.296 10.7042 19.7254C10.1335 19.1547 9.35945 18.834 8.55237 18.834C7.74529 18.834 6.97127 19.1547 6.40057 19.7254C5.82988 20.296 5.50927 21.0701 5.50927 21.8772H0.183838V0.575439H23.0071Z" fill="#DAD7E5"/>
<path d="M35.1795 15.791V21.8772H32.1364C32.1364 21.0701 31.8158 20.2961 31.2451 19.7254C30.6744 19.1547 29.9004 18.8341 29.0933 18.8341C28.2862 18.8341 27.5122 19.1547 26.9415 19.7254C26.3708 20.2961 26.0502 21.0701 26.0502 21.8772H23.0071V5.14014H28.0662C28.3697 5.14136 28.6658 5.23328 28.9166 5.4041C29.1674 5.57491 29.3614 5.81681 29.4737 6.09871L32.1364 12.7479C32.9435 12.7479 33.7175 13.0685 34.2882 13.6392C34.8589 14.2099 35.1795 14.9839 35.1795 15.791Z" fill="#6FABE6"/>
<path d="M35.1787 15.791V20.3557H31.7248C31.4573 19.8945 31.0733 19.5117 30.6113 19.2456C30.1494 18.9796 29.6256 18.8395 29.0925 18.8395C28.5594 18.8395 28.0356 18.9796 27.5736 19.2456C27.1117 19.5117 26.7277 19.8945 26.4602 20.3557C25.9477 20.3557 25.4562 20.1521 25.0938 19.7897C24.7314 19.4273 24.5278 18.9358 24.5278 18.4233V5.14014H28.0654C28.3689 5.14136 28.665 5.23328 28.9158 5.4041C29.1666 5.57491 29.3606 5.81681 29.4729 6.09871L32.1356 12.7479C32.9427 12.7479 33.7167 13.0685 34.2874 13.6392C34.8581 14.2099 35.1787 14.9839 35.1787 15.791Z" fill="#82BCF4"/>
<path d="M32.1363 12.7479H26.05V5.14014H28.0661C28.3695 5.14136 28.6657 5.23328 28.9165 5.4041C29.1673 5.57491 29.3613 5.81681 29.4735 6.09871L32.1363 12.7479Z" fill="#9FDBF3"/>
<path d="M32.1359 12.7479C30.9253 12.7479 29.7643 12.267 28.9082 11.4109C28.0522 10.5549 27.5713 9.39386 27.5713 8.18324V5.14014H28.0658C28.3692 5.14136 28.6654 5.23328 28.9162 5.4041C29.167 5.57491 29.361 5.81681 29.4732 6.09871L32.1359 12.7479Z" fill="#B2E5FB"/>
<path d="M11.595 21.8771C11.595 22.479 11.4165 23.0673 11.0821 23.5677C10.7478 24.0682 10.2725 24.4582 9.71644 24.6885C9.16039 24.9189 8.54852 24.9791 7.95821 24.8617C7.36791 24.7443 6.82568 24.4545 6.40009 24.0289C5.97451 23.6033 5.68468 23.0611 5.56726 22.4708C5.44984 21.8805 5.51011 21.2686 5.74043 20.7125C5.97076 20.1565 6.3608 19.6812 6.86124 19.3468C7.36167 19.0125 7.95003 18.834 8.55189 18.834C9.35898 18.834 10.133 19.1546 10.7037 19.7253C11.2744 20.296 11.595 21.07 11.595 21.8771Z" fill="#425B72"/>
<path d="M10.7814 23.9465C8.70452 26.2288 4.93106 24.2279 5.56251 21.3294C7.64704 19.0699 11.4129 21.0555 10.7814 23.9465Z" fill="#374F68"/>
<path d="M32.1363 21.8771C32.1363 22.479 31.9578 23.0673 31.6234 23.5677C31.289 24.0682 30.8138 24.4582 30.2577 24.6885C29.7016 24.9189 29.0898 24.9791 28.4995 24.8617C27.9092 24.7443 27.3669 24.4545 26.9414 24.0289C26.5158 23.6033 26.2259 23.0611 26.1085 22.4708C25.9911 21.8805 26.0514 21.2686 26.2817 20.7125C26.512 20.1565 26.9021 19.6812 27.4025 19.3468C27.9029 19.0125 28.4913 18.834 29.0932 18.834C29.9002 18.834 30.6743 19.1546 31.245 19.7253C31.8156 20.296 32.1363 21.07 32.1363 21.8771Z" fill="#425B72"/>
<path d="M31.3207 23.9465C29.2438 26.2288 25.4704 24.2279 26.1018 21.3294C28.1863 19.0699 31.9522 21.0555 31.3207 23.9465Z" fill="#374F68"/>
<path d="M9.31257 21.8772C9.31257 21.6755 9.23241 21.482 9.08974 21.3393C8.94707 21.1966 8.75356 21.1165 8.55179 21.1165C8.35002 21.1165 8.15652 21.1966 8.01384 21.3393C7.87117 21.482 7.79102 21.6755 7.79102 21.8772C7.79102 22.079 7.87117 22.2725 8.01384 22.4152C8.15652 22.5579 8.35002 22.638 8.55179 22.638C8.75356 22.638 8.94707 22.5579 9.08974 22.4152C9.23241 22.2725 9.31257 22.079 9.31257 21.8772Z" fill="#DAD7E5"/>
<path d="M23.0063 0.575439V20.3556H11.1838C10.9163 19.8945 10.5324 19.5117 10.0704 19.2456C9.60842 18.9795 9.08466 18.8395 8.55154 18.8395C8.01842 18.8395 7.49465 18.9795 7.03268 19.2456C6.57072 19.5117 6.18676 19.8945 5.91925 20.3556C5.00322 20.3556 4.1247 19.9917 3.47696 19.344C2.82923 18.6963 2.46533 17.8177 2.46533 16.9017V0.575439H23.0063Z" fill="#EDEBF2"/>
<path d="M29.8546 21.8772C29.8546 21.6755 29.7744 21.482 29.6317 21.3393C29.4891 21.1966 29.2956 21.1165 29.0938 21.1165C28.892 21.1165 28.6985 21.1966 28.5558 21.3393C28.4132 21.482 28.333 21.6755 28.333 21.8772C28.333 22.079 28.4132 22.2725 28.5558 22.4152C28.6985 22.5579 28.892 22.638 29.0938 22.638C29.2956 22.638 29.4891 22.5579 29.6317 22.4152C29.7744 22.2725 29.8546 22.079 29.8546 21.8772Z" fill="#DAD7E5"/>
<path d="M5.50843 6.66169C5.7102 6.66169 5.90371 6.58154 6.04638 6.43886C6.18906 6.29619 6.26921 6.10268 6.26921 5.90091C6.26921 5.69914 6.18906 5.50564 6.04638 5.36296C5.90371 5.22029 5.7102 5.14014 5.50843 5.14014H3.22611C3.02434 5.14014 2.83083 5.22029 2.68816 5.36296C2.54549 5.50564 2.46533 5.69914 2.46533 5.90091V10.4656C2.46533 10.6673 2.54549 10.8608 2.68816 11.0035C2.83083 11.1462 3.02434 11.2263 3.22611 11.2263C3.42788 11.2263 3.62138 11.1462 3.76406 11.0035C3.90673 10.8608 3.98688 10.6673 3.98688 10.4656V8.94402H5.50843C5.7102 8.94402 5.90371 8.86386 6.04638 8.72119C6.18906 8.57852 6.26921 8.38501 6.26921 8.18324C6.26921 7.98147 6.18906 7.78796 6.04638 7.64529C5.90371 7.50262 5.7102 7.42246 5.50843 7.42246H3.98688V6.66169H5.50843ZM9.6927 5.14014H7.79076C7.58899 5.14014 7.39548 5.22029 7.25281 5.36296C7.11014 5.50564 7.02998 5.69914 7.02998 5.90091V10.4656C7.02998 10.6673 7.11014 10.8608 7.25281 11.0035C7.39548 11.1462 7.58899 11.2263 7.79076 11.2263C7.99253 11.2263 8.18604 11.1462 8.32871 11.0035C8.47138 10.8608 8.55154 10.6673 8.55154 10.4656V8.94402H8.90149C10.2785 11.0057 10.3013 11.2263 10.8339 11.2263C10.9709 11.2256 11.1051 11.1879 11.2225 11.1173C11.3398 11.0466 11.4359 10.9455 11.5006 10.8247C11.5653 10.7039 11.5961 10.5679 11.5899 10.4311C11.5837 10.2942 11.5407 10.1616 11.4653 10.0471L10.5828 8.71578C10.9544 8.51525 11.2487 8.19678 11.4193 7.81056C11.5899 7.42433 11.6271 6.99232 11.5251 6.58259C11.4231 6.17287 11.1877 5.80873 10.8559 5.54756C10.5242 5.2864 10.1149 5.14306 9.6927 5.14014ZM8.55154 6.66169H9.6927C9.79358 6.66169 9.89034 6.70176 9.96167 6.7731C10.033 6.84444 10.0731 6.94119 10.0731 7.04208C10.0731 7.52137 9.60901 7.42246 8.55154 7.42246V6.66169ZM15.3985 6.66169C15.6003 6.66169 15.7938 6.58154 15.9365 6.43886C16.0791 6.29619 16.1593 6.10268 16.1593 5.90091C16.1593 5.69914 16.0791 5.50564 15.9365 5.36296C15.7938 5.22029 15.6003 5.14014 15.3985 5.14014H13.1162C12.9144 5.14014 12.7209 5.22029 12.5782 5.36296C12.4356 5.50564 12.3554 5.69914 12.3554 5.90091V10.4656C12.3554 10.6673 12.4356 10.8608 12.5782 11.0035C12.7209 11.1462 12.9144 11.2263 13.1162 11.2263H15.3985C15.6003 11.2263 15.7938 11.1462 15.9365 11.0035C16.0791 10.8608 16.1593 10.6673 16.1593 10.4656C16.1593 10.2638 16.0791 10.0703 15.9365 9.92762C15.7938 9.78495 15.6003 9.70479 15.3985 9.70479H13.877V8.94402H14.6377C14.8395 8.94402 15.033 8.86386 15.1757 8.72119C15.3184 8.57852 15.3985 8.38501 15.3985 8.18324C15.3985 7.98147 15.3184 7.78796 15.1757 7.64529C15.033 7.50262 14.8395 7.42246 14.6377 7.42246H13.877V6.66169H15.3985ZM19.9632 9.70479H18.4416V8.94402H19.2024C19.4042 8.94402 19.5977 8.86386 19.7403 8.72119C19.883 8.57852 19.9632 8.38501 19.9632 8.18324C19.9632 7.98147 19.883 7.78796 19.7403 7.64529C19.5977 7.50262 19.4042 7.42246 19.2024 7.42246H18.4416V6.66169H19.9632C20.1649 6.66169 20.3584 6.58154 20.5011 6.43886C20.6438 6.29619 20.7239 6.10268 20.7239 5.90091C20.7239 5.69914 20.6438 5.50564 20.5011 5.36296C20.3584 5.22029 20.1649 5.14014 19.9632 5.14014H17.6808C17.4791 5.14014 17.2856 5.22029 17.1429 5.36296C17.0002 5.50564 16.9201 5.69914 16.9201 5.90091V10.4656C16.9201 10.6673 17.0002 10.8608 17.1429 11.0035C17.2856 11.1462 17.4791 11.2263 17.6808 11.2263H19.9632C20.1649 11.2263 20.3584 11.1462 20.5011 11.0035C20.6438 10.8608 20.7239 10.6673 20.7239 10.4656C20.7239 10.2638 20.6438 10.0703 20.5011 9.92762C20.3584 9.78495 20.1649 9.70479 19.9632 9.70479Z" fill="#B5E08C"/>
<path d="M0.183838 15.0303H23.0071V16.5518H0.183838V15.0303Z" fill="#DAD7E5"/>
</svg>
