<svg width="184" height="33" viewBox="0 0 184 33" fill="none" xmlns="http://www.w3.org/2000/svg">
<path d="M9.15958 32.396C7.86358 32.396 6.69958 32.288 5.66758 32.072C4.63558 31.856 3.48358 31.568 2.21158 31.208C1.37158 30.968 0.807575 30.836 0.519575 30.812L0.843575 24.152H3.75958L4.55158 28.796C4.86358 29.132 5.41558 29.432 6.20758 29.696C7.02358 29.96 7.94758 30.092 8.97958 30.092C10.5876 30.092 11.7876 29.744 12.5796 29.048C13.3956 28.328 13.8036 27.332 13.8036 26.06C13.8036 25.22 13.5636 24.5 13.0836 23.9C12.6036 23.276 11.9436 22.724 11.1036 22.244C10.2636 21.74 9.11158 21.164 7.64758 20.516C5.65558 19.604 3.99958 18.524 2.67958 17.276C1.38358 16.004 0.735575 14.288 0.735575 12.128C0.735575 10.784 1.08358 9.572 1.77958 8.492C2.47558 7.388 3.50758 6.524 4.87558 5.9C6.26758 5.252 7.95958 4.928 9.95158 4.928C11.1276 4.928 12.1596 5.012 13.0476 5.18C13.9596 5.348 14.9436 5.576 15.9996 5.864C16.6236 6.032 17.0916 6.14 17.4036 6.188L17.1876 12.488H14.3076L13.5516 8.06C13.3356 7.844 12.9036 7.64 12.2556 7.448C11.6076 7.232 10.8876 7.124 10.0956 7.124C8.65558 7.124 7.56358 7.46 6.81958 8.132C6.09958 8.78 5.73958 9.656 5.73958 10.76C5.73958 11.648 6.00358 12.416 6.53158 13.064C7.08358 13.712 7.74358 14.264 8.51158 14.72C9.27958 15.152 10.4916 15.776 12.1476 16.592C13.4916 17.24 14.6436 17.876 15.6036 18.5C16.5636 19.124 17.3916 19.94 18.0876 20.948C18.7836 21.932 19.1316 23.096 19.1316 24.44C19.1316 25.76 18.7956 27.02 18.1236 28.22C17.4756 29.42 16.3956 30.416 14.8836 31.208C13.3956 32 11.4876 32.396 9.15958 32.396ZM35.819 32.288C32.171 32.288 29.459 31.376 27.683 29.552C25.907 27.728 25.019 24.86 25.019 20.948V7.952L22.643 7.484V5.252H33.515V7.484L30.455 7.988V21.416C30.455 27.128 32.483 29.984 36.539 29.984C38.531 29.984 40.007 29.252 40.967 27.788C41.927 26.3 42.407 24.224 42.407 21.56V7.988L39.311 7.484V5.252H48.311V7.484L45.863 7.952V21.272C45.863 25.016 44.951 27.788 43.127 29.588C41.327 31.388 38.891 32.288 35.819 32.288ZM64.1569 32.396C60.0769 32.396 56.9569 31.184 54.7969 28.76C52.6369 26.312 51.5569 22.976 51.5569 18.752C51.5569 15.968 52.1209 13.544 53.2489 11.48C54.4009 9.392 55.9729 7.784 57.9649 6.656C59.9569 5.528 62.2129 4.964 64.7329 4.964C65.7889 4.964 66.8089 5.036 67.7929 5.18C68.7769 5.3 69.9409 5.468 71.2849 5.684C72.2929 5.852 72.8449 5.936 72.9409 5.936L72.5449 13.352H69.2329L68.1169 8.204C67.8529 7.94 67.3969 7.724 66.7489 7.556C66.1009 7.388 65.2729 7.304 64.2649 7.304C62.2249 7.304 60.5809 8.252 59.3329 10.148C58.1089 12.02 57.4969 14.744 57.4969 18.32C57.4969 21.776 58.0849 24.596 59.2609 26.78C60.4369 28.964 62.1529 30.056 64.4089 30.056C65.4889 30.056 66.3169 29.96 66.8929 29.768C67.4929 29.552 67.9969 29.252 68.4049 28.868L69.9889 25.16L73.0129 25.448L72.2929 31.028C71.7889 31.076 71.2849 31.172 70.7809 31.316C70.3009 31.436 70.0009 31.508 69.8809 31.532C68.9209 31.796 68.0209 32 67.1809 32.144C66.3649 32.312 65.3569 32.396 64.1569 32.396ZM89.6522 32.396C85.5722 32.396 82.4522 31.184 80.2922 28.76C78.1322 26.312 77.0522 22.976 77.0522 18.752C77.0522 15.968 77.6162 13.544 78.7442 11.48C79.8962 9.392 81.4682 7.784 83.4602 6.656C85.4522 5.528 87.7082 4.964 90.2282 4.964C91.2842 4.964 92.3042 5.036 93.2882 5.18C94.2722 5.3 95.4362 5.468 96.7802 5.684C97.7882 5.852 98.3402 5.936 98.4362 5.936L98.0402 13.352H94.7282L93.6122 8.204C93.3482 7.94 92.8922 7.724 92.2442 7.556C91.5962 7.388 90.7682 7.304 89.7602 7.304C87.7202 7.304 86.0762 8.252 84.8282 10.148C83.6042 12.02 82.9922 14.744 82.9922 18.32C82.9922 21.776 83.5802 24.596 84.7562 26.78C85.9322 28.964 87.6482 30.056 89.9042 30.056C90.9842 30.056 91.8122 29.96 92.3882 29.768C92.9882 29.552 93.4922 29.252 93.9002 28.868L95.4842 25.16L98.5082 25.448L97.7882 31.028C97.2842 31.076 96.7802 31.172 96.2762 31.316C95.7962 31.436 95.4962 31.508 95.3762 31.532C94.4162 31.796 93.5162 32 92.6762 32.144C91.8602 32.312 90.8522 32.396 89.6522 32.396ZM105.752 7.952L102.872 7.484V5.252H122.06L122.528 11.3H120.008L118.82 7.736L111.044 7.412V17.096L116.048 16.988L116.624 14.036H118.928V22.748H116.624L116.048 19.652L111.044 19.544V29.696L119.756 29.264L121.844 24.656L124.544 25.412L123.608 32H102.908V29.84L105.752 29.48V7.952ZM137.585 32.396C136.289 32.396 135.125 32.288 134.093 32.072C133.061 31.856 131.909 31.568 130.637 31.208C129.797 30.968 129.233 30.836 128.945 30.812L129.269 24.152H132.185L132.977 28.796C133.289 29.132 133.841 29.432 134.633 29.696C135.449 29.96 136.373 30.092 137.405 30.092C139.013 30.092 140.213 29.744 141.005 29.048C141.821 28.328 142.229 27.332 142.229 26.06C142.229 25.22 141.989 24.5 141.509 23.9C141.029 23.276 140.369 22.724 139.529 22.244C138.689 21.74 137.537 21.164 136.073 20.516C134.081 19.604 132.425 18.524 131.105 17.276C129.809 16.004 129.161 14.288 129.161 12.128C129.161 10.784 129.509 9.572 130.205 8.492C130.901 7.388 131.933 6.524 133.301 5.9C134.693 5.252 136.385 4.928 138.377 4.928C139.553 4.928 140.585 5.012 141.473 5.18C142.385 5.348 143.369 5.576 144.425 5.864C145.049 6.032 145.517 6.14 145.829 6.188L145.613 12.488H142.733L141.977 8.06C141.761 7.844 141.329 7.64 140.681 7.448C140.033 7.232 139.313 7.124 138.521 7.124C137.081 7.124 135.989 7.46 135.245 8.132C134.525 8.78 134.165 9.656 134.165 10.76C134.165 11.648 134.429 12.416 134.957 13.064C135.509 13.712 136.169 14.264 136.937 14.72C137.705 15.152 138.917 15.776 140.573 16.592C141.917 17.24 143.069 17.876 144.029 18.5C144.989 19.124 145.817 19.94 146.513 20.948C147.209 21.932 147.557 23.096 147.557 24.44C147.557 25.76 147.221 27.02 146.549 28.22C145.901 29.42 144.821 30.416 143.309 31.208C141.821 32 139.913 32.396 137.585 32.396ZM161.077 32.396C159.781 32.396 158.617 32.288 157.585 32.072C156.553 31.856 155.401 31.568 154.129 31.208C153.289 30.968 152.725 30.836 152.437 30.812L152.761 24.152H155.677L156.469 28.796C156.781 29.132 157.333 29.432 158.125 29.696C158.941 29.96 159.865 30.092 160.897 30.092C162.505 30.092 163.705 29.744 164.497 29.048C165.313 28.328 165.721 27.332 165.721 26.06C165.721 25.22 165.481 24.5 165.001 23.9C164.521 23.276 163.861 22.724 163.021 22.244C162.181 21.74 161.029 21.164 159.565 20.516C157.573 19.604 155.917 18.524 154.597 17.276C153.301 16.004 152.653 14.288 152.653 12.128C152.653 10.784 153.001 9.572 153.697 8.492C154.393 7.388 155.425 6.524 156.793 5.9C158.185 5.252 159.877 4.928 161.869 4.928C163.045 4.928 164.077 5.012 164.965 5.18C165.877 5.348 166.861 5.576 167.917 5.864C168.541 6.032 169.009 6.14 169.321 6.188L169.105 12.488H166.225L165.469 8.06C165.253 7.844 164.821 7.64 164.173 7.448C163.525 7.232 162.805 7.124 162.013 7.124C160.573 7.124 159.481 7.46 158.737 8.132C158.017 8.78 157.657 9.656 157.657 10.76C157.657 11.648 157.921 12.416 158.449 13.064C159.001 13.712 159.661 14.264 160.429 14.72C161.197 15.152 162.409 15.776 164.065 16.592C165.409 17.24 166.561 17.876 167.521 18.5C168.481 19.124 169.309 19.94 170.005 20.948C170.701 21.932 171.049 23.096 171.049 24.44C171.049 25.76 170.713 27.02 170.041 28.22C169.393 29.42 168.313 30.416 166.801 31.208C165.313 32 163.405 32.396 161.077 32.396ZM181.652 23H178.556L177.188 0.139998H182.984L181.652 23ZM177.188 29.624C177.188 28.76 177.512 28.04 178.16 27.464C178.808 26.888 179.576 26.6 180.464 26.6C181.352 26.6 182.048 26.876 182.552 27.428C183.08 27.956 183.344 28.592 183.344 29.336C183.344 30.248 183.02 30.98 182.372 31.532C181.748 32.06 180.944 32.324 179.96 32.324C179.216 32.324 178.568 32.072 178.016 31.568C177.464 31.064 177.188 30.416 177.188 29.624Z" fill="#303030"/>
</svg>
