<svg width="201" height="182" viewBox="0 0 201 182" fill="none" xmlns="http://www.w3.org/2000/svg">
<path d="M96.2986 117.715C97.6126 117.573 98.7698 117.454 99.912 117.32C103.122 116.939 106.333 116.916 109.55 117.14C114.082 117.461 118.562 118.171 122.989 119.179C123.116 119.208 123.25 119.231 123.377 119.261C123.698 119.35 123.847 119.223 123.937 118.902C124.176 118.066 124.46 117.245 124.728 116.416C126.975 109.533 131.537 104.792 138.077 101.813C142.318 99.8795 146.737 99.2449 151.344 99.5585C152.21 99.6182 153.061 99.7377 153.957 99.9168C154.061 98.8343 154.188 97.7891 154.255 96.7439C154.547 92.2569 155.801 88.0388 157.727 83.9998C158.19 83.0218 158.623 82.0363 158.996 81.0135C160.236 77.5867 160.153 74.1748 158.817 70.8152C158.011 68.792 156.6 67.1794 155.039 65.7012C152.494 63.2972 149.358 62.0205 146.088 61.0127C143.378 60.1765 140.586 59.7808 137.786 59.4448C135.143 59.1313 132.5 58.8028 129.85 58.5564C127.774 58.3623 125.691 58.2354 123.616 58.1757C118.868 58.0338 114.119 58.0338 109.371 58.1831C106.124 58.2802 102.883 58.5116 99.7478 59.4299C97.3587 60.1317 95.0443 61.035 93.1704 62.7522C89.8034 65.8206 88.1385 69.6356 88.2356 74.2121C88.3102 77.736 89.2136 81.0881 90.2886 84.4104C90.9979 86.6203 91.849 88.7779 92.3417 91.0549C92.6852 92.6526 92.9987 94.2578 93.0809 95.8928C93.0958 96.1541 93.0958 96.4228 93.0734 96.6841C93.0435 97.0425 92.8494 97.2739 92.4761 97.3113C92.1103 97.3486 91.8341 97.147 91.7669 96.7289C91.6698 96.1018 91.6474 95.4672 91.5504 94.8401C91.1323 92.0927 90.4006 89.4274 89.4749 86.8144C88.3998 83.7758 87.474 80.6999 86.9664 77.512C86.2422 72.9803 86.7947 68.68 89.3853 64.7679C91.0128 62.3042 93.1555 60.4751 95.8432 59.2358C98.8594 57.8472 102.032 57.1603 105.317 56.899C111.663 56.3913 118.024 56.4884 124.377 56.6825C130.29 56.8617 136.151 57.6232 141.997 58.4892C145.379 58.9894 148.619 60.0346 151.687 61.5353C154.793 63.0583 157.287 65.3055 159.168 68.1873C160.99 70.9795 161.602 74.1002 161.363 77.4075C161.214 79.5726 160.527 81.5809 159.646 83.5444C159.138 84.6717 158.653 85.814 158.153 86.9488C156.682 90.2486 156.07 93.7352 155.764 97.3038C155.689 98.1698 155.652 99.0433 155.569 99.9094C155.532 100.313 155.666 100.529 156.055 100.678C156.891 100.999 157.66 101.47 158.414 101.955C161.027 103.635 163.244 107.719 161.527 112.026C160.9 113.609 159.989 115.028 158.839 116.289C158.586 116.573 158.436 116.879 158.317 117.237C157.294 120.313 156.241 123.382 155.211 126.45C153.718 130.9 152.135 135.32 150.941 139.859C150.254 142.487 149.664 145.137 149.149 147.802C148.619 150.565 148.746 153.297 149.313 156.045C149.903 158.911 150.366 161.801 150.523 164.735C150.56 165.496 150.56 166.265 150.366 167.019C150.149 167.848 149.798 168.587 148.88 168.789C147.954 168.998 147.245 168.535 146.663 167.863C146.23 167.355 145.954 166.758 145.737 166.131C145.058 164.205 144.729 162.204 144.356 160.21C144.221 159.486 144.095 158.755 143.833 158.06C143.527 157.232 143.161 157.045 142.31 157.269C141.72 157.426 141.175 157.702 140.653 158.008C137.704 159.71 134.643 161.181 131.492 162.473C131.276 162.562 131.059 162.674 130.813 162.667C130.522 162.659 130.313 162.532 130.193 162.264C130.074 161.987 130.148 161.734 130.357 161.547C130.514 161.412 130.701 161.308 130.895 161.226C134.128 159.8 137.256 158.157 140.347 156.44C140.899 156.134 141.482 155.888 142.101 155.738C143.497 155.41 144.542 155.918 145.14 157.217C145.58 158.187 145.737 159.232 145.924 160.27C146.23 161.928 146.521 163.592 147.036 165.205C147.193 165.705 147.372 166.205 147.663 166.653C147.812 166.877 147.969 167.086 148.216 167.206C148.44 167.318 148.626 167.281 148.738 167.042C148.888 166.728 148.94 166.392 148.962 166.041C149.052 164.638 148.888 163.249 148.708 161.86C148.41 159.531 148.007 157.217 147.551 154.917C147.088 152.58 147.185 150.251 147.581 147.922C148.679 141.539 150.523 135.357 152.643 129.242C153.703 126.181 154.733 123.106 155.778 120.037C155.861 119.798 155.935 119.559 156.017 119.32C155.831 119.261 155.756 119.335 155.674 119.403C152.658 121.635 149.291 123.188 145.819 124.546C144.565 125.039 143.288 125.465 141.982 125.771C141.459 125.89 141.205 126.144 141.063 126.674C139.152 133.722 136.972 140.695 134.837 147.675C134.374 149.191 133.837 150.677 133.217 152.133C132.06 154.865 130.35 157.157 127.886 158.859C127.319 159.247 126.766 159.658 126.281 160.143C125.833 160.599 125.452 161.099 125.229 161.711C125.064 162.167 125.124 162.256 125.609 162.316C126.266 162.398 126.908 162.54 127.52 162.794C129.014 163.413 129.812 164.518 129.82 166.153C129.827 167.258 129.827 168.371 129.82 169.476C129.79 172.432 129.589 175.381 129.163 178.308C129.073 178.935 128.939 179.554 128.67 180.129C128.08 181.368 126.834 181.458 126.057 180.323C125.751 179.883 125.609 179.375 125.497 178.853C125.124 177.143 125.019 175.403 124.907 173.671C124.706 170.566 124.415 167.467 124.064 164.376C124.004 163.816 123.997 163.802 123.429 163.854C121.802 164.011 120.197 164.332 118.584 164.6C115.112 165.175 111.618 165.369 108.102 165.235C106.624 165.175 105.153 165.108 103.675 165.063C101.062 164.974 98.4786 164.608 95.8955 164.197C92.3044 163.63 88.7059 163.062 85.1746 162.196C81.4641 161.293 77.776 160.278 74.1924 158.941C73.4757 158.673 73.5728 158.575 73.192 159.322C72.0871 161.51 71.0195 163.719 69.9295 165.914C69.2351 167.31 68.4811 168.669 67.6748 169.998C67.2492 170.7 66.8013 171.387 66.1966 171.947C65.659 172.447 65.0468 172.835 64.2704 172.499C63.4716 172.148 63.2999 171.446 63.3223 170.663C63.3446 169.729 63.5686 168.833 63.8672 167.96C64.8378 165.115 66.0174 162.346 67.1373 159.561C67.6076 158.389 68.0854 157.217 68.5035 156.022C69.3098 153.708 69.3322 151.378 68.7723 149.012C68.1675 146.496 67.3015 144.062 66.5549 141.591C65.6068 138.433 64.8079 135.237 64.3525 131.967C64.1584 130.556 64.0315 129.138 63.9867 127.712C63.9195 125.651 63.494 123.703 62.5831 121.836C61.7768 120.179 60.978 118.514 60.5524 116.7C60.1568 114.99 60.0522 113.273 60.2762 111.519C60.7764 107.502 63.927 105.262 67.2045 104.926C67.6972 104.874 68.1078 104.732 68.5035 104.449C72.6022 101.567 77.1265 99.7153 82.0838 98.9463C84.2264 98.6103 86.384 98.4759 88.5491 98.7223C92.4239 99.1702 95.1115 101.253 96.7466 104.747C97.9037 107.203 98.1651 109.802 97.9112 112.474C97.7096 114.251 97.2542 115.968 96.2986 117.715ZM141.788 124.166C142.056 124.203 142.228 124.136 142.407 124.091C143.736 123.748 145.013 123.255 146.282 122.732C150.202 121.12 153.964 119.246 156.973 116.133C158.25 114.804 159.317 113.348 160.034 111.653C161.363 108.495 160.273 104.986 157.406 103.105C156.002 102.179 154.479 101.5 152.822 101.246C150.202 100.85 147.566 100.917 144.938 101.291C142.079 101.694 139.436 102.716 136.912 104.075C132.448 106.472 129.058 109.891 127.043 114.602C125.856 117.379 125.034 120.261 124.392 123.203C123.399 127.764 122.421 132.326 121.085 136.798C120.525 138.672 119.846 140.501 118.957 142.24C116.949 146.16 113.828 148.668 109.491 149.587C107.833 149.938 106.146 150.057 104.459 150.079C99.4044 150.139 94.4023 149.676 89.445 148.691C86.8992 148.183 84.4355 147.414 82.1509 146.175C79.187 144.562 76.9697 142.285 76.0141 138.97C75.4317 136.969 75.0734 134.909 74.9763 132.819C74.8196 129.369 74.603 125.92 74.6404 122.456C74.6404 122.284 74.7076 122.09 74.5209 121.911C74.3044 121.911 74.17 122.09 73.9983 122.195C73.4384 122.546 72.8337 122.807 72.1692 122.911C70.4819 123.165 68.9664 122.695 67.63 121.709C62.8668 118.215 62.4338 111.437 65.2708 107.398C65.3679 107.263 65.5471 107.159 65.4724 106.867C63.7627 107.607 62.5383 108.749 62.0232 110.541C61.5006 112.355 61.5753 114.191 61.956 116.021C62.3218 117.797 63.0908 119.417 63.8896 121.023C64.9573 123.173 65.4425 125.435 65.5023 127.809C65.5396 129.257 65.6889 130.706 65.9054 132.139C66.3832 135.297 67.1671 138.388 68.1003 141.441C68.8693 143.965 69.7801 146.444 70.3177 149.027C70.6163 150.453 70.7806 151.886 70.6238 153.349C70.4371 155.104 69.8697 156.739 69.2351 158.359C68.0854 161.278 66.9133 164.182 65.7561 167.101C65.4127 167.96 65.1215 168.833 64.9498 169.744C64.8826 170.11 64.7855 170.483 64.9274 170.879C65.2857 170.737 65.4276 170.468 65.6068 170.244C66.1966 169.498 66.6595 168.662 67.1298 167.841C68.5558 165.339 69.7503 162.726 71.0195 160.143C71.4002 159.359 71.8034 158.59 72.2215 157.829C72.647 157.06 73.0054 156.955 73.8565 157.269C74.4015 157.471 74.9465 157.672 75.4915 157.851C78.4255 158.814 81.382 159.68 84.3832 160.382C91.7594 162.099 99.2028 163.436 106.81 163.637C109.849 163.719 112.88 163.772 115.896 163.383C118.382 163.062 120.846 162.644 123.325 162.286C123.616 162.241 123.72 162.107 123.773 161.838C123.997 160.591 124.698 159.621 125.594 158.762C126.154 158.232 126.766 157.777 127.386 157.329C129.238 155.97 130.589 154.208 131.552 152.14C132.291 150.557 132.873 148.922 133.381 147.257C135.225 141.21 137.121 135.17 138.824 129.078C139.07 128.19 139.324 127.309 139.578 126.405C139.16 126.271 138.801 126.383 138.443 126.428C136.995 126.614 135.539 126.704 134.113 126.338C130.589 125.427 128.693 123.427 128.282 120.254C127.939 117.573 128.237 114.916 129.432 112.452C130.723 109.772 132.791 108.107 135.882 107.92C140.115 107.666 142.213 110.227 142.863 113.012C143.042 113.781 143.109 114.572 143.124 115.364C143.176 117.947 142.639 120.448 142.041 122.934C141.929 123.352 141.765 123.718 141.788 124.166ZM123.407 120.709C123.093 120.634 122.839 120.575 122.586 120.522C119.973 120.015 117.345 119.604 114.717 119.201C108.595 118.26 102.48 118.305 96.3658 119.261C96 119.32 95.7461 119.455 95.5222 119.761C93.7901 122.075 91.7594 124.098 89.4152 125.801C87.5039 127.182 85.4956 128.376 83.2484 129.123C82.5914 129.339 81.9195 129.451 81.2252 129.407C79.8067 129.31 79.0527 128.235 79.4558 126.868C79.5902 126.405 79.8291 125.995 80.1203 125.614C80.7175 124.83 81.4342 124.181 82.2256 123.598C85.63 121.105 89.445 119.477 93.4989 118.395C94.2455 118.193 94.6636 117.82 95.007 117.178C96.2015 114.968 96.4629 112.579 96.4181 110.123C96.3882 108.443 96.0224 106.83 95.2982 105.307C93.9991 102.582 91.9535 100.805 88.9149 100.313C87.3695 100.059 85.8166 100.081 84.2638 100.223C79.3662 100.656 74.8419 102.171 70.691 104.814C70.5491 104.904 70.3699 104.956 70.3177 105.143C70.3699 105.188 70.3849 105.218 70.4073 105.225C70.579 105.292 70.7507 105.352 70.9224 105.419C72.7814 106.128 74.2895 107.3 75.3422 108.973C77.2534 112.004 77.7461 115.259 76.5143 118.656C76.1485 119.664 76.0887 120.642 76.1037 121.672C76.1335 124.838 76.2828 127.996 76.3948 131.161C76.4695 133.274 76.7457 135.357 77.1563 137.432C77.7909 140.65 79.6275 142.972 82.3973 144.607C83.9502 145.518 85.6076 146.197 87.3471 146.66C90.5425 147.504 93.7976 148.004 97.0825 148.295C100.554 148.609 104.033 148.743 107.505 148.392C112.246 147.914 115.695 145.578 117.785 141.27C118.509 139.769 119.114 138.224 119.592 136.634C121.145 131.422 122.212 126.092 123.407 120.709ZM141.623 115.856C141.653 115.117 141.564 114.378 141.429 113.654C141.116 111.914 140.265 110.518 138.592 109.831C136.868 109.122 133.837 109.167 132.045 111.242C131.403 111.989 130.85 112.78 130.507 113.706C129.812 115.535 129.574 117.446 129.671 119.373C129.82 122.352 131.418 124.322 134.874 124.994C136.487 125.308 138.07 125.002 139.66 124.778C139.981 124.733 140.085 124.517 140.153 124.24C140.309 123.628 140.474 123.016 140.615 122.404C141.138 120.246 141.564 118.081 141.623 115.856ZM75.6333 115.199C75.6259 113.422 75.2078 111.862 74.4089 110.399C73.2443 108.286 71.4973 106.979 69.1157 106.509C68.5632 106.397 68.175 106.532 67.7644 106.912C65.2857 109.219 64.6437 112.094 65.2559 115.296C65.659 117.409 66.7416 119.164 68.4886 120.478C69.2501 121.045 70.1161 121.381 71.0419 121.456C72.647 121.59 73.7519 120.754 74.5135 119.417C75.26 118.074 75.5736 116.61 75.6333 115.199ZM93.2302 120.112C93.1331 120.037 93.0286 120.059 92.9315 120.089C89.3181 121.172 85.9212 122.702 82.8826 124.965C82.3301 125.375 81.8374 125.845 81.4044 126.383C81.2028 126.629 81.0311 126.898 80.9191 127.197C80.7623 127.645 80.8818 127.846 81.3521 127.906C81.5611 127.928 81.7702 127.906 81.9792 127.876C82.6661 127.787 83.3081 127.533 83.9353 127.257C87.489 125.674 90.4902 123.359 93.051 120.44C93.1256 120.343 93.2227 120.254 93.2302 120.112ZM127.297 179.248C127.58 178.681 127.61 178.106 127.692 177.539C128.065 174.978 128.17 172.402 128.275 169.819C128.327 168.58 128.334 167.34 128.342 166.108C128.342 165.69 128.334 165.257 127.976 164.944C127.438 164.466 126.834 164.1 126.117 163.958C125.579 163.854 125.527 163.891 125.594 164.451C125.968 167.803 126.251 171.163 126.483 174.522C126.565 175.754 126.662 176.994 126.908 178.21C126.975 178.554 126.998 178.935 127.297 179.248Z" fill="#303030"/>
<path d="M31.1669 111.937C31.0027 111.25 30.5398 110.802 29.965 110.459C29.4647 110.152 28.8973 110.026 28.3225 109.914C27.001 109.66 25.6572 109.578 24.3134 109.473C21.3718 109.242 18.4229 109.047 15.4813 108.809C14.2719 108.712 13.0699 108.547 11.9052 108.181C11.0093 107.905 10.1956 107.487 9.49378 106.867C8.34405 105.86 7.98569 104.635 8.45604 103.157C9.00104 101.425 10.1433 100.201 11.6439 99.2748C13.8687 97.8936 16.31 97.1022 18.8708 96.602C22.7007 95.8554 26.568 95.736 30.4502 95.7509C36.3631 95.7733 42.179 96.505 47.8903 98.0355C49.2939 98.4087 50.675 98.8418 51.9591 99.5435C52.5639 99.872 53.1462 100.238 53.6613 100.693C55.7742 102.545 56.0802 105.501 54.3557 107.734C53.5344 108.794 52.4743 109.57 51.3171 110.227C49.6 111.198 47.7186 111.728 45.8073 112.116C41.9027 112.915 37.9459 113.348 33.9591 113.527C33.877 113.527 33.8024 113.534 33.7202 113.534C33.3917 113.512 33.2424 113.617 33.3022 113.99C33.3693 114.43 33.3693 114.886 33.4141 115.326C33.6306 117.461 33.444 119.597 33.3096 121.724C33.1603 123.987 32.9886 126.249 32.8691 128.511C32.6004 133.699 32.6302 138.896 32.5854 144.092C32.5854 144.331 32.5929 144.57 32.5556 144.801C32.4809 145.212 32.145 145.48 31.7791 145.451C31.4282 145.428 31.1819 145.182 31.1147 144.779C31.0923 144.652 31.0923 144.517 31.0923 144.383C31.152 139.269 31.0699 134.147 31.3312 129.033C31.473 126.293 31.7045 123.561 31.8687 120.821C31.9956 118.581 32.0778 116.342 31.8015 114.102C31.7567 113.766 31.7269 113.505 31.2715 113.49C28.9795 113.445 26.6875 113.415 24.4104 113.841C22.0512 114.288 20.1698 115.52 18.6394 117.327C16.9073 119.38 15.6456 121.724 14.4809 124.121C12.495 128.197 10.8824 132.445 9.00104 136.566C8.14248 138.463 7.32871 140.381 6.49254 142.285C6.29843 142.733 5.9998 142.897 5.64144 142.778C5.30548 142.666 5.11883 142.293 5.22336 141.86C5.29801 141.553 5.4324 141.262 5.54438 140.971C7.1346 136.895 9.00851 132.938 10.6883 128.892C11.7932 126.234 12.9878 123.621 14.3465 121.09C15.1603 119.574 16.0786 118.133 17.1387 116.782C19.3934 113.885 22.3573 112.355 26.0081 112.079C27.5087 111.967 29.0093 111.892 30.51 111.952C30.719 112.011 30.928 112.049 31.1669 111.937ZM29.965 97.2665C24.9629 97.259 22.3125 97.4755 18.602 98.2072C16.4146 98.6402 14.3391 99.3868 12.4278 100.559C11.3528 101.223 10.4643 102.067 10.0015 103.284C9.51618 104.546 9.75508 105.3 10.8824 106.061C11.7559 106.651 12.7489 106.912 13.7642 107.077C16.0338 107.442 18.3258 107.51 20.6178 107.704C23.0591 107.905 25.5153 108.002 27.9492 108.323C30.1516 108.614 31.9658 109.421 32.7646 111.698C32.8617 111.967 33.0558 112.049 33.3171 112.034C33.5784 112.019 33.8472 112.019 34.1085 112.011C36.7215 111.944 39.3121 111.623 41.9027 111.28C44.0753 110.989 46.2254 110.593 48.3084 109.906C50.0106 109.346 51.5635 108.532 52.8177 107.226C53.8928 106.098 54.2511 104.785 53.7211 103.291C53.3851 102.351 52.6684 101.731 51.8472 101.223C50.6526 100.477 49.3387 100.006 47.9873 99.6331C41.9774 97.9757 35.848 97.2217 29.965 97.2665Z" fill="#303030"/>
<path d="M55.274 141.673C55.2889 142.128 55.0948 142.427 54.7663 142.524C54.4229 142.621 54.1019 142.487 53.9078 142.128C53.8256 141.972 53.7734 141.785 53.7286 141.606C52.004 134.999 50.0256 128.466 48.3756 121.836C47.8082 119.559 47.2632 117.275 46.7182 114.998C46.6958 114.893 46.666 114.789 46.6585 114.684C46.6286 114.259 46.8078 113.96 47.1438 113.893C47.5096 113.818 47.7634 113.997 47.9053 114.311C48.0023 114.527 48.0546 114.759 48.1143 114.99C49.6075 120.455 50.9438 125.965 52.5042 131.415C53.415 134.61 54.2587 137.821 55.1322 141.023C55.1844 141.262 55.2292 141.494 55.274 141.673Z" fill="#303030"/>
<path d="M127.386 13.1495C127.379 13.2391 127.364 13.3213 127.379 13.3885C127.775 15.2549 127.834 17.1512 127.939 19.0475C128.073 21.5187 127.819 23.9451 127.424 26.364C127.103 28.32 126.334 30.1043 124.938 31.5676C124.811 31.702 124.699 31.8588 124.549 31.9633C123.28 32.8517 121.944 33.5162 120.354 33.6356C117.905 33.8148 115.598 33.3445 113.336 32.4187C110.566 31.2765 108.005 29.7758 105.571 28.0438C104.758 27.4689 104.048 26.7522 103.272 26.0803C102.816 26.2968 102.436 26.6253 102.055 26.9538C101.017 27.8497 99.8824 28.6186 98.785 29.4324C97.5158 30.3731 96.269 31.3362 94.9326 32.2022C93.9621 32.8293 92.9691 33.4341 92.0508 34.1433C91.8418 34.3076 91.6103 34.427 91.3266 34.427C90.7518 34.427 90.4681 33.9791 90.707 33.4565C90.8264 33.1952 91.0429 33.0608 91.2744 32.9264C92.8049 31.9932 94.2458 30.9256 95.6419 29.8132C96.381 29.2234 97.1947 28.7306 97.9563 28.1632C99.2404 27.1927 100.45 26.1325 101.794 25.2441C101.898 25.1695 101.995 25.0724 102.085 24.9828C102.212 24.8559 102.242 24.7439 102.1 24.5797C101.502 23.8629 101.152 23.0118 100.816 22.1458C100.286 20.787 100.368 19.4507 100.875 18.1367C101.286 17.0691 101.921 16.1359 102.727 15.3146C103.989 14.0156 105.482 13.0301 107.065 12.1865C108.364 11.4921 109.722 10.9173 111.066 10.3126C112.395 9.71529 113.791 9.342 115.157 8.87912C115.897 8.62528 116.703 8.55063 117.502 8.74474C118.614 9.02097 119.092 9.84221 118.778 10.9471C118.472 12.0222 117.741 12.836 117.069 13.6722C116.583 14.2918 116.009 14.8443 115.449 15.3893C113.933 16.86 112.417 18.3159 110.82 19.697C109.028 21.2425 107.221 22.7804 105.415 24.3184C105.138 24.5573 104.825 24.7588 104.511 24.9977C105.646 26.2669 106.982 27.2375 108.401 28.0886C109.394 28.6858 110.379 29.2906 111.417 29.8281C113.067 30.6717 114.769 31.366 116.561 31.8439C118.196 32.2769 119.838 32.3291 121.481 31.8737C123.153 31.4108 124.243 30.2984 124.997 28.7978C125.669 27.4614 125.983 26.0131 126.147 24.5423C126.446 21.892 126.565 19.2416 126.229 16.5763C126.102 15.5834 126.08 14.5755 125.863 13.5975C125.766 13.1346 125.639 12.6792 125.542 12.2163C125.498 11.9774 125.341 11.858 125.154 11.746C123.997 11.0591 122.914 10.2678 121.824 9.47638C121.011 8.87912 120.271 8.19227 119.644 7.42329C118.286 5.73603 118.412 3.81732 120.085 2.27937C121.645 0.838476 123.467 0.24868 125.55 0.890737C127.222 1.40588 128.417 2.45108 128.797 4.22794C128.984 5.11637 128.857 6.0048 128.603 6.88576C128.275 8.04295 127.685 9.06577 127.103 10.096C126.707 10.7978 126.7 10.7978 127.409 11.2383C129.313 12.4179 131.321 13.4258 133.292 14.4785C135.061 15.4191 136.853 16.315 138.6 17.2931C141.915 19.1371 145.207 21.0334 148.515 22.8849C151.687 24.6618 154.883 26.3938 158.056 28.1782C159.639 29.0741 161.191 30.0222 162.737 30.9704C166.709 33.4191 170.755 35.7485 174.921 37.8538C177.885 39.3544 180.938 40.6684 184.126 41.624C185.619 42.072 185.582 42.2064 185.672 40.5116C185.754 38.9513 186.164 37.4507 187.172 36.2561C188.546 34.6211 190.838 34.427 192.301 36.4204C194.504 39.4142 192.264 42.6618 189.89 43.3561C189.091 43.5875 188.307 43.7443 187.486 43.7368C187.105 43.7294 186.971 43.8712 186.986 44.2445C187.038 45.6406 187.068 47.0367 187.105 48.4328C187.113 48.6195 187.142 48.7986 187.142 48.9853C187.165 51.9343 187.165 54.8907 187.217 57.8397C187.284 61.5054 187.292 65.1711 187.337 68.8293C187.352 70.1209 187.344 71.4125 187.374 72.6966C187.419 74.802 187.381 76.9148 187.508 79.0201C187.605 80.7074 187.538 82.3947 187.658 84.0745C187.785 85.7617 187.702 87.449 187.814 89.1288C187.919 90.6369 187.822 92.13 187.814 93.6307C187.807 95.7659 187.68 97.9011 187.673 100.029C187.673 101.925 187.508 103.821 187.523 105.71C187.546 107.636 187.366 109.555 187.366 111.474C187.366 112.9 187.21 114.311 187.18 115.729C187.105 118.551 186.814 121.359 186.59 124.166C186.426 126.264 186.045 128.347 185.605 130.415C185.351 131.609 185.089 131.452 186.426 131.818C188.673 132.43 190.838 133.252 192.809 134.513C193.653 135.051 194.459 135.648 195.25 136.26C196.46 137.201 197.639 138.172 198.722 139.254C199.58 140.105 200.394 141.023 200.85 142.173C201.186 143.024 200.969 143.368 200.081 143.599C198.729 143.95 197.348 144.137 195.967 144.338C192.279 144.868 188.568 145.033 184.865 145.301C184.291 145.346 183.708 145.354 183.126 145.368C180.834 145.436 178.542 145.54 176.25 145.592C174.481 145.63 172.726 145.488 170.964 145.451C168.127 145.391 165.365 144.809 162.573 144.45C162.155 144.398 161.744 144.286 161.363 144.092C161.02 143.92 160.885 143.599 160.975 143.233C161.064 142.882 161.303 142.696 161.662 142.688C161.871 142.688 162.087 142.711 162.289 142.755C165.611 143.539 169.001 143.853 172.398 144.002C176.086 144.159 179.774 144.01 183.462 143.778C183.992 143.748 184.515 143.719 185.045 143.711C187.18 143.696 189.308 143.48 191.428 143.278C193.682 143.062 195.952 142.965 198.184 142.532C198.483 142.472 198.789 142.405 199.155 142.322C198.819 141.71 198.461 141.195 198.02 140.747C195.698 138.336 193.093 136.305 190.099 134.789C188.636 134.05 187.09 133.528 185.507 133.11C185.037 132.99 184.925 133.169 184.783 133.535C184.238 134.939 183.604 136.29 182.693 137.507C181.648 138.888 180.408 140.038 178.967 140.994C177.691 141.837 176.257 142.173 174.809 142.36C173.323 142.554 171.882 142.143 170.68 141.285C169.508 140.441 168.881 139.239 169.232 137.709C169.419 136.902 169.717 136.148 170.225 135.491C171.024 134.461 171.95 133.61 173.107 132.953C175.757 131.437 178.617 130.922 181.618 130.997C182.17 131.012 182.723 131.101 183.268 131.154C183.88 131.213 183.887 131.213 184.044 130.586C184.373 129.28 184.574 127.958 184.724 126.614C184.91 124.86 185.231 123.113 185.313 121.351C185.433 118.828 185.739 116.312 185.746 113.781C185.746 112.467 185.948 111.145 185.926 109.831C185.896 107.622 186.15 105.412 186.06 103.202C186.038 102.545 186.127 101.888 186.15 101.223C186.217 98.6925 186.299 96.1616 186.329 93.6307C186.359 91.7045 186.403 89.7783 186.291 87.8596C186.202 86.1723 186.276 84.4851 186.142 82.8053C186.015 81.1703 186.082 79.5353 186 77.9077C185.821 74.4287 185.881 70.9496 185.821 67.478C185.791 65.7385 185.873 63.999 185.806 62.2594C185.672 58.7804 185.746 55.3013 185.649 51.8223C185.575 49.2391 185.657 46.656 185.56 44.0803C185.545 43.6099 185.395 43.4457 184.962 43.3561C181.61 42.6468 178.512 41.2582 175.429 39.8098C172.323 38.3465 169.344 36.6593 166.388 34.9272C163.521 33.2474 160.699 31.5004 157.824 29.8356C155.405 28.4395 152.942 27.118 150.5 25.7592C148.522 24.6543 146.544 23.5494 144.573 22.4295C140.795 20.2794 137.017 18.1218 133.15 16.1284C131.366 15.2101 129.611 14.247 127.842 13.3213C127.692 13.2391 127.573 13.1271 127.386 13.1495ZM103.496 23.8256C103.645 23.7211 103.742 23.6763 103.817 23.6091C105.146 22.4519 106.52 21.347 107.871 20.2047C109.379 18.9281 110.827 17.5768 112.305 16.2777C113.478 15.2474 114.583 14.1574 115.605 12.9928C116.18 12.3432 116.733 11.6639 117.128 10.8874C117.39 10.3797 117.285 10.2006 116.725 10.2304C116.038 10.2678 115.359 10.3872 114.709 10.6037C112.686 11.2831 110.73 12.1043 108.797 13.0226C106.818 13.9559 105.041 15.1578 103.526 16.7257C102.719 17.5693 102.13 18.5473 102.062 19.7941C101.995 21.3171 102.473 22.6236 103.496 23.8256ZM183.365 132.789C181.267 132.423 179.303 132.415 177.318 132.923C175.824 133.304 174.376 133.782 173.144 134.715C172.091 135.514 171.143 136.432 170.792 137.798C170.516 138.881 170.949 139.799 171.965 140.247C174.704 141.471 177.064 140.538 179.244 138.896C180.252 138.134 181.05 137.134 181.76 136.074C182.439 135.058 182.894 133.953 183.365 132.789ZM127.394 5.3702C127.312 4.0189 126.744 2.89903 125.438 2.39882C124.34 1.98074 123.325 2.17485 122.295 2.56307C121.414 2.89903 120.831 3.54855 120.428 4.39219C120.182 4.91479 120.197 5.42247 120.503 5.90028C120.802 6.36315 121.108 6.81857 121.511 7.20679C122.578 8.2296 123.788 9.06577 125.05 9.83474C125.386 10.0363 125.58 9.97659 125.744 9.66303C126.237 8.73727 126.811 7.84884 127.095 6.81857C127.237 6.34076 127.371 5.85548 127.394 5.3702ZM187.904 42.1093C188.083 42.0869 188.374 42.057 188.658 42.0272C189.897 41.9003 190.748 41.2059 191.323 40.1533C192.055 38.8244 191.488 37.1894 190.151 36.6145C189.808 36.4652 189.502 36.4726 189.158 36.607C188.486 36.8758 188.158 37.4432 187.882 38.0479C187.396 39.1155 187.195 40.2578 187.113 41.4225C187.068 42.0944 187.105 42.1242 187.904 42.1093Z" fill="#303030"/>
<path d="M103.063 42.7664C103.041 42.3557 103.16 42.1467 103.257 41.9377C104.706 38.8991 106.184 35.8754 107.819 32.9339C107.894 32.7995 107.961 32.6502 108.05 32.5233C108.259 32.2247 108.543 32.1276 108.879 32.2769C109.185 32.4113 109.394 32.8145 109.275 33.128C109.073 33.6432 108.834 34.1434 108.58 34.6287C107.296 37.0774 106.154 39.5859 104.96 42.0795C104.788 42.4304 104.653 42.8186 104.355 43.0874C104.116 43.3114 103.832 43.4383 103.489 43.3039C103.16 43.177 103.078 42.9082 103.063 42.7664Z" fill="#303030"/>
<path d="M115.426 44.9313C115.65 41.8853 115.874 38.9661 116.479 36.0993C116.509 35.9724 116.516 35.838 116.561 35.7111C116.71 35.2706 117.016 35.0615 117.375 35.1362C117.74 35.2183 117.92 35.5244 117.86 35.9948C117.778 36.592 117.628 37.1893 117.591 37.794C117.442 40.1607 117.068 42.5049 116.964 44.879C116.956 45.0358 116.964 45.2001 116.919 45.3494C116.807 45.7376 116.509 45.8869 116.135 45.8944C115.784 45.9018 115.493 45.6405 115.426 45.2673C115.404 45.1179 115.426 44.9612 115.426 44.9313Z" fill="#303030"/>
<path d="M67.0628 82.8126C66.2042 81.648 65.2188 80.6251 64.0466 79.7964C60.7841 77.4895 57.2602 75.7649 53.2884 75.0258C50.3768 74.4883 47.4801 74.3016 44.5908 75.1229C44.4116 75.1751 44.2325 75.2274 44.0533 75.2349C43.7397 75.2423 43.4784 75.1005 43.3664 74.8018C43.2544 74.5032 43.3291 74.227 43.5605 74.003C43.7397 73.8313 43.9562 73.7492 44.1877 73.6894C46.1661 73.1594 48.1669 72.9279 50.22 73.0922C55.5655 73.5103 60.3735 75.3468 64.7335 78.4377C66.3013 79.5501 67.563 80.9536 68.7277 82.4692C68.8098 82.5737 68.8845 82.6857 68.9442 82.8052C69.31 83.5293 69.0412 84.1341 68.2499 84.2908C67.5556 84.4252 66.8463 84.5148 66.1371 84.5969C63.1358 84.9404 60.1346 84.903 57.1333 84.6268C54.3561 84.373 51.6609 83.7608 49.1076 82.6484C45.748 81.1851 42.911 79.0648 40.8579 75.974C40.6862 75.7127 40.522 75.5484 40.1711 75.5708C38.7152 75.6604 37.3042 75.9665 35.9081 76.3846C35.5722 76.4891 35.5722 76.7355 35.5498 76.9968C35.4154 78.3332 35.2735 79.6695 35.1167 81.0059C35.0495 81.6106 34.9525 82.2079 34.8405 82.8052C34.7733 83.171 34.8629 83.3203 35.2661 83.3502C36.8712 83.4621 38.4539 83.7384 40.0218 84.1191C40.6638 84.2759 41.2909 84.47 41.8957 84.7388C44.0309 85.7019 45.1881 87.2996 45.1433 89.6886C45.1209 91.1444 44.882 92.5779 44.6132 94.0038C44.1653 96.3854 43.7397 98.7745 43.023 101.096C42.7692 101.903 42.4855 102.694 42.045 103.426C41.2909 104.658 40.2084 105.434 38.7526 105.456C35.3258 105.509 31.8915 105.546 28.4871 105.008C27.86 104.911 27.2553 104.74 26.6655 104.486C25.4859 103.986 24.7617 103.112 24.4929 101.858C24.2391 100.641 24.1196 99.409 23.9479 98.1847C23.5075 95.0266 23.0968 91.8611 22.9027 88.6733C22.8803 88.3074 22.8579 87.9342 22.8803 87.5683C22.9102 87.0905 23.1566 86.8217 23.5298 86.8292C23.8957 86.8292 24.1495 87.083 24.1868 87.5683C24.2988 89.069 24.4631 90.5621 24.6572 92.0553C25.0603 95.1162 25.4336 98.1772 25.889 101.223C26.0533 102.328 26.6505 102.978 27.6883 103.276C28.5543 103.53 29.4353 103.679 30.3312 103.754C32.8546 103.978 35.393 103.933 37.9239 103.986C38.0284 103.986 38.1329 103.978 38.2374 103.986C39.5887 104.015 40.4772 103.358 41.0147 102.156C41.6418 100.753 42.0077 99.2672 42.3287 97.7666C42.814 95.497 43.2992 93.2274 43.5531 90.9205C43.5979 90.5248 43.6352 90.1291 43.6352 89.7409C43.6501 87.964 42.8886 86.8068 41.2536 86.0976C40.2532 85.6646 39.1931 85.4704 38.1329 85.2465C37.0952 85.03 36.0425 84.9553 34.9973 84.8135C34.5717 84.7537 34.4523 84.9329 34.3702 85.2987C34.2656 85.8139 34.1238 86.3215 33.967 86.8292C33.758 87.4862 33.422 88.0835 32.9591 88.6061C32.3096 89.3526 31.5108 89.8155 30.5029 89.8976C29.5697 89.9798 28.6514 89.9051 27.7704 89.6214C26.9492 89.3526 26.2549 88.8823 25.8442 88.0835C25.2768 86.986 25.5083 85.8064 26.4564 85.015C27.0313 84.5372 27.6958 84.2162 28.3975 83.9847C29.8086 83.5219 31.242 83.1934 32.7352 83.2008C33.0711 83.2008 33.2727 83.1336 33.3324 82.7529C33.6012 80.9835 33.8476 79.2066 33.9819 77.4149C33.9894 77.3103 33.9745 77.2058 33.9595 77.0789C33.6161 77.0117 33.3399 77.1909 33.0487 77.2805C30.9583 77.9375 28.8455 78.475 26.6431 78.6467C24.5975 78.8035 22.5892 78.587 20.5809 78.2585C17.6244 77.7658 14.7874 76.9147 12.0923 75.5783C9.77041 74.4285 7.76958 72.8607 5.97033 71.0092C4.11135 69.098 2.41662 67.0374 0.893601 64.85C0.609901 64.4393 0.326201 64.0213 0.16942 63.536C-0.11428 62.6699 0.273941 62.0428 1.18477 61.9831C5.00725 61.7517 8.82973 61.6397 12.6447 62.0577C15.4369 62.3638 18.1545 62.9014 20.7675 63.9914C24.911 65.7234 28.2557 68.3738 30.6298 72.2037C30.697 72.3157 30.7791 72.4203 30.8388 72.5397C31.033 72.9279 31.3017 73.0474 31.7422 72.9354C32.3544 72.7861 32.9815 72.6741 33.6087 72.592C34.0417 72.5397 34.1761 72.3381 34.1611 71.9126C34.0939 70.3373 33.758 68.8367 33.0039 67.4331C32.2051 65.9624 31.1524 64.6782 30.0923 63.4016C27.8003 60.6318 25.7547 57.6977 23.8957 54.6218C21.7903 51.1278 20.5286 47.38 20.0433 43.3336C19.7223 40.6832 19.4535 38.0403 19.4386 35.3676C19.4386 35.1063 19.4162 34.8375 19.5058 34.5837C19.7074 34.0163 20.2449 33.7998 20.775 34.0835C20.9094 34.1581 21.0363 34.2626 21.1557 34.3597C24.9409 37.5476 27.7853 41.4149 29.6219 46.0213C30.697 48.7089 31.3465 51.4937 31.7721 54.3456C31.8169 54.6592 31.8318 54.9727 32.0184 55.3385C32.2573 54.3008 32.4664 53.3303 32.7053 52.3672C34.0118 47.1561 36.2067 42.378 39.6858 38.2344C41.3507 36.256 43.3067 34.6285 45.5614 33.3593C45.6958 33.2846 45.8376 33.2025 45.9795 33.1353C46.7186 32.8068 47.286 33.0233 47.5547 33.7848C47.8086 34.4866 47.8758 35.2257 47.9877 35.9499C48.697 40.6982 48.0325 45.2523 46.0018 49.6048C45.0014 51.755 43.6501 53.6587 42.0002 55.3609C40.8654 56.5405 39.6485 57.6305 38.439 58.7355C37.3341 59.7508 36.2142 60.7587 35.281 61.9532C35.0869 62.1996 34.9226 62.4758 34.7285 62.7297C34.5493 62.976 34.5643 63.1851 34.7285 63.4464C35.4602 64.6036 36.1694 65.7757 36.8936 66.9478C36.9459 67.03 36.9832 67.1419 37.14 67.1643C37.3565 67.0822 37.4237 66.8358 37.5431 66.6417C39.6783 63.1627 42.4108 60.2212 45.5763 57.6604C48.8687 54.9951 52.6688 53.4422 56.7899 52.6285C59.3507 52.1208 61.9488 51.852 64.5394 51.5385C66.3237 51.322 68.0856 51.0159 69.8475 50.6874C70.0267 50.65 70.2134 50.5978 70.3926 50.5978C71.1615 50.5978 71.5348 51.2249 71.1615 51.8968C71.0197 52.1507 70.833 52.3746 70.6613 52.6061C69.9446 53.5841 69.3025 54.6218 68.6978 55.667C64.95 62.1548 59.4552 66.5223 52.4672 69.1054C47.9056 70.7927 43.1947 71.935 38.4763 73.0548C37.7074 73.234 36.9309 73.3983 36.1619 73.5774C35.7215 73.682 35.4452 74.2718 35.6393 74.6749C35.7289 74.869 35.9081 74.8018 36.0574 74.772C36.5427 74.6525 37.028 74.5181 37.5133 74.4136C38.4913 74.1971 39.4917 74.115 40.4921 74.0478C41.0744 74.003 41.5 74.2046 41.8061 74.7272C43.0753 76.9296 44.9193 78.5646 47.0396 79.9084C49.787 81.6554 52.8256 82.5737 56.0135 82.9993C59.5074 83.4621 63.0089 83.4995 66.5029 83.0291C66.697 82.9918 66.8687 83.0217 67.0628 82.8126ZM68.8173 52.4941C68.6082 52.3896 68.3992 52.4642 68.2051 52.5016C66.8015 52.7629 65.3905 52.9196 63.9794 53.1063C61.5008 53.4348 58.9998 53.6737 56.551 54.2037C52.9749 54.9802 49.6601 56.3539 46.7708 58.6384C43.5755 61.1619 40.8505 64.1108 38.7376 67.6048C38.5211 67.9632 38.3121 68.3365 38.0732 68.6799C37.4834 69.5385 36.7667 69.531 36.2142 68.6575C36.0873 68.4559 35.9753 68.2469 35.8484 68.0453C35.0197 66.7015 34.2134 65.3352 33.3399 64.0138C32.8994 63.3493 32.8994 62.8118 33.325 62.1399C34.176 60.811 35.2287 59.6836 36.3635 58.616C37.7074 57.3468 39.096 56.1299 40.4025 54.8309C45.4121 49.8363 47.3308 43.7666 46.5842 36.7935C46.5095 36.1216 46.4871 35.4348 46.2408 34.7853C45.9347 34.7853 45.7331 34.9794 45.5166 35.1137C43.8442 36.1515 42.366 37.4132 41.0744 38.8989C37.7223 42.7662 35.6169 47.2606 34.2955 52.1656C33.646 54.5621 33.2951 57.0184 32.8845 59.4597C32.8397 59.7508 32.7799 60.0345 32.6456 60.2958C32.4888 60.6019 32.2349 60.7736 31.8766 60.7438C31.5556 60.7214 31.3391 60.5347 31.2345 60.2361C31.1823 60.0868 31.1449 59.93 31.1151 59.7807C30.9583 58.8475 30.7866 57.9142 30.6447 56.9736C30.2938 54.6517 29.9952 52.3224 29.3756 50.0528C27.9645 44.9089 25.5232 40.3697 21.5216 36.7562C21.3797 36.6293 21.2826 36.3829 20.9915 36.48C20.9915 36.8458 20.9766 37.2116 20.9915 37.5775C21.1109 40.1084 21.417 42.6243 21.8426 45.1179C22.2532 47.5293 22.9998 49.8213 24.1644 51.9789C25.3664 54.2112 26.6879 56.3688 28.1512 58.4368C29.6369 60.5273 31.3167 62.4534 32.8695 64.4841C34.1686 66.1789 35.1765 68.0154 35.49 70.1656C35.5572 70.6061 35.5796 71.054 35.6319 71.502C35.7065 72.1216 35.714 72.1291 36.2963 72.0022C36.8861 71.8753 37.4759 71.7334 38.0657 71.5916C42.7841 70.4717 47.5025 69.3369 52.0566 67.6422C57.3125 65.6787 61.792 62.6401 65.2412 58.1681C66.5775 56.4286 67.6227 54.4949 68.7874 52.6434C68.8322 52.6135 68.8098 52.5538 68.8173 52.4941ZM1.90895 63.4016C1.95374 63.7749 2.12545 63.9466 2.25984 64.1332C3.65594 66.1191 5.20882 67.9856 6.87369 69.7475C9.27021 72.2859 12.0997 74.1448 15.3847 75.3319C17.6543 76.1531 19.9836 76.6683 22.3652 76.9744C24.5452 77.2581 26.7252 77.2506 28.8977 76.8101C30.4506 76.4966 31.9587 76.0337 33.4593 75.5484C34.1387 75.3319 34.1387 75.3319 34.1537 74.6227C34.1537 74.4286 34.2358 74.2046 34.0342 74.0329C33.4145 74.1374 32.7949 74.2419 32.1752 74.3614C30.6149 74.6451 30.3909 74.548 29.5174 73.1967C29.4203 73.0399 29.3233 72.8831 29.2188 72.7338C28.3453 71.4422 27.4046 70.2104 26.2474 69.1502C23.6493 66.7537 20.5734 65.2456 17.1989 64.3423C14.2573 63.5584 11.2262 63.3493 8.19513 63.2523C6.11218 63.1776 4.03669 63.3568 1.90895 63.4016ZM29.8459 88.3896C31.0927 88.5389 31.8617 87.8371 32.3843 86.7546C32.6008 86.2991 32.7352 85.8139 32.8397 85.3286C32.9666 84.7463 32.9143 84.6791 32.3171 84.7015C30.8538 84.7612 29.4577 85.1046 28.1213 85.7019C27.9048 85.7989 27.7032 85.9259 27.5166 86.0677C26.9193 86.5306 26.882 87.1577 27.4121 87.6952C27.6808 87.964 28.0093 88.1208 28.3677 88.2253C28.838 88.3522 29.3084 88.412 29.8459 88.3896Z" fill="#303030"/>
</svg>
